<svg viewBox="0 0 1100 610" xmlns="http://www.w3.org/2000/svg"><rect fill="#fff" height="100%" width="100%"/><g fill="#333" font-family="sans-serif"><text font-size="20" x="95" y="30">Blur timings (3840x2160)</text><path d="m95 480h945" stroke="#e5e5e5"/><text font-size="12" text-anchor="end" x="85" y="484">0.05</text><path d="m95 448.98102378h945" stroke="#e5e5e5"/><text font-size="12" text-anchor="end" x="85" y="452.981024">0.1</text><path d="m95 417.96204757h945" stroke="#e5e5e5"/><text font-size="12" text-anchor="end" x="85" y="421.962048">0.2</text><path d="m95 376.95719143h945" stroke="#e5e5e5"/><text font-size="12" text-anchor="end" x="85" y="380.957191">0.5</text><path d="m95 345.93821521h945" stroke="#e5e5e5"/><text font-size="12" text-anchor="end" x="85" y="349.938215">1</text><path d="m95 314.91923899h945" stroke="#e5e5e5"/><text font-size="12" text-anchor="end" x="85" y="318.919239">2</text><path d="m95 273.91438286h945" stroke="#e5e5e5"/><text font-size="12" text-anchor="end" x="85" y="277.914383">5</text><path d="m95 242.89540664h945" stroke="#e5e5e5"/><text font-size="12" text-anchor="end" x="85" y="246.895407">10</text><path d="m95 211.87643042h945" stroke="#e5e5e5"/><text font-size="12" text-anchor="end" x="85" y="215.87643">20</text><path d="m95 170.87157429h945" stroke="#e5e5e5"/><text font-size="12" text-anchor="end" x="85" y="174.871574">50</text><path d="m95 139.85259807h945" stroke="#e5e5e5"/><text font-size="12" text-anchor="end" x="85" y="143.852598">100</text><path d="m95 108.83362185h945" stroke="#e5e5e5"/><text font-size="12" text-anchor="end" x="85" y="112.833622">200</text><path d="m95 70v410" stroke="#eee"/><text font-size="12" text-anchor="middle" x="95" y="501">5</text><path d="m155.01268735 70v410" stroke="#eee"/><text font-size="12" text-anchor="middle" x="155.012687" y="501">7</text><path d="m218.62869951 70v410" stroke="#eee"/><text font-size="12" text-anchor="middle" x="218.6287" y="501">10</text><path d="m278.64138686 70v410" stroke="#eee"/><text font-size="12" text-anchor="middle" x="278.641387" y="501">14</text><path d="m333.10880338 70v410" stroke="#eee"/><text font-size="12" text-anchor="middle" x="333.108803" y="501">19</text><path d="m395.78360749 70v410" stroke="#eee"/><text font-size="12" text-anchor="middle" x="395.783607" y="501">27</text><path d="m456.73750289 70v410" stroke="#eee"/><text font-size="12" text-anchor="middle" x="456.737503" y="501">38</text><path d="m516.07840598 70v410" stroke="#eee"/><text font-size="12" text-anchor="middle" x="516.078406" y="501">53</text><path d="m575.60969354 70v410" stroke="#eee"/><text font-size="12" text-anchor="middle" x="575.609694" y="501">74</text><path d="m634.58641373 70v410" stroke="#eee"/><text font-size="12" text-anchor="middle" x="634.586414" y="501">103</text><path d="m695.58587268 70v410" stroke="#eee"/><text font-size="12" text-anchor="middle" x="695.585873" y="501">145</text><path d="m754.71777547 70v410" stroke="#eee"/><text font-size="12" text-anchor="middle" x="754.717775" y="501">202</text><path d="m814.8565558 70v410" stroke="#eee"/><text font-size="12" text-anchor="middle" x="814.856556" y="501">283</text><path d="m875.22901839 70v410" stroke="#eee"/><text font-size="12" text-anchor="middle" x="875.229018" y="501">397</text><path d="m935.30587502 70v410" stroke="#eee"/><text font-size="12" text-anchor="middle" x="935.305875" y="501">556</text><path d="m995.2268849 70v410" stroke="#eee"/><text font-size="12" text-anchor="middle" x="995.226885" y="501">778</text><path d="m1040 70v410" stroke="#eee"/><text font-size="12" text-anchor="middle" x="1040" y="501">1000</text><text font-size="15" text-anchor="middle" x="567.5" y="528">Blur radius (pixels)</text><text font-size="15" text-anchor="middle" transform="matrix(0 -1 1 0 25 275)">Time, ms</text><path d="m95 321.75551349 60.01268735-12.92831497 63.61601216-14.47245549 60.01268735-14.42816066 54.46741652-13.26716765 62.67480411-15.01937352 60.9538954-15.12863573 59.34090309-14.50902949 59.53128756-14.89682962 58.97672019-14.69683749 60.99945895-15.30502851 59.13190279-14.6143611 60.13878033-15.04684001 60.37246259-15.03471356 60.07685663-15.10072786 59.92100988-15.07675319 44.7731151-11.19718834" fill="none" stroke="#c6534a" stroke-width="2.5"/><path d="m95 322.19211112 60.01268735-13.20188534 63.61601216-37.11695537 60.01268735.14274632 54.46741652-.28503876 62.67480411.14229244 60.9538954-.14229244 59.34090309.14229227 59.53128756-.14229227 58.97672019-10.24087162 60.99945895-.13540384 59.13190279-.13499522 60.13878033.27039906 60.37246259-.27039906 60.07685663.13499538 59.92100988-.13499538h44.7731151" fill="none" stroke="#3277ad" stroke-width="2.5"/><path d="m95 327.42189814 60.01268735 5.0863596h63.61601216l60.01268735.29344974 54.46741652-.08578856 62.67480411-.11005829 60.9538954-.19499349 59.34090309.78512401 59.53128756-.19757596 58.97672019-.37952463 60.99945895.93744594 59.13190279-.55792154 60.13878033-.19670748 60.37246259-.08578856 60.07685663.08578856 59.92100988-.19584685 44.7731151.19584661" fill="none" stroke="#9554a0" stroke-dasharray="7 4" stroke-linecap="round" stroke-width="2"/><path d="m95 348.6639383 60.01268735-10.32186882 63.61601216-12.68481655 60.01268735-7.89573035 54.46741652 21.15062998 62.67480411 15.73931876 60.9538954 13.27768471 59.34090309 8.55943523 59.53128756 2.88815823 58.97672019 4.43958898 60.99945895.8313106 59.13190279-1.20643554 60.13878033 1.46737461 60.37246259.01963197 60.07685663-.26755992 59.92100988.49723742 44.7731151.05266371" fill="none" stroke="#b77b22" stroke-width="2.5"/><path d="m95 253.30280537 60.01268735-.14094777 63.61601216-.00000017 60.01268735.00000017 54.46741652.14094777 62.67480411-.28145318 60.9538954.14050524 59.34090309-.14050524h59.53128756l58.97672019-.27969408 60.99945895-.00000016 59.13190279-.82874452 60.13878033-.81367559 60.37246259-.4013562 60.07685663-1.44158926 59.92100988-1.14588976 44.7731151-.62415146" fill="none" stroke="#168c91" stroke-dasharray="1 5" stroke-linecap="round" stroke-width="2"/><path d="m95 335.24198831 60.01268735-8.14523765 63.61601216-13.46407432 60.01268735-14.71969877 54.46741652 50.51408874 62.67480411-6.05804233 60.9538954 18.74433292 59.34090309-2.22271569 59.53128756 8.90749205 58.97672019-.98357612 60.99945895-.31364273 59.13190279-1.05301148 60.13878033-1.23175437 60.37246259 2.92867504 60.07685663-.64390919 59.92100988-.11459916 44.7731151-.29550866" fill="none" stroke="#37834c" stroke-width="4"/><circle cx="95" cy="253.302805" fill="#168c91" r="4"/><circle cx="95" cy="321.755513" fill="#c6534a" r="4"/><circle cx="95" cy="322.192111" fill="#3277ad" r="4"/><circle cx="95" cy="327.421898" fill="#9554a0" r="4"/><circle cx="95" cy="335.241988" fill="#37834c" r="4"/><circle cx="95" cy="348.663938" fill="#b77b22" r="4"/><circle cx="155.012687" cy="253.161858" fill="#168c91" r="4"/><circle cx="155.012687" cy="308.827199" fill="#c6534a" r="4"/><circle cx="155.012687" cy="308.990226" fill="#3277ad" r="4"/><circle cx="155.012687" cy="327.096751" fill="#37834c" r="4"/><circle cx="155.012687" cy="332.508258" fill="#9554a0" r="4"/><circle cx="155.012687" cy="338.342069" fill="#b77b22" r="4"/><circle cx="218.6287" cy="253.161857" fill="#168c91" r="4"/><circle cx="218.6287" cy="271.87327" fill="#3277ad" r="4"/><circle cx="218.6287" cy="294.354743" fill="#c6534a" r="4"/><circle cx="218.6287" cy="313.632676" fill="#37834c" r="4"/><circle cx="218.6287" cy="325.657253" fill="#b77b22" r="4"/><circle cx="218.6287" cy="332.508258" fill="#9554a0" r="4"/><circle cx="278.641387" cy="253.161858" fill="#168c91" r="4"/><circle cx="278.641387" cy="272.016017" fill="#3277ad" r="4"/><circle cx="278.641387" cy="279.926582" fill="#c6534a" r="4"/><circle cx="278.641387" cy="298.912978" fill="#37834c" r="4"/><circle cx="278.641387" cy="317.761523" fill="#b77b22" r="4"/><circle cx="278.641387" cy="332.801707" fill="#9554a0" r="4"/><circle cx="333.108803" cy="253.302805" fill="#168c91" r="4"/><circle cx="333.108803" cy="266.659415" fill="#c6534a" r="4"/><circle cx="333.108803" cy="271.730978" fill="#3277ad" r="4"/><circle cx="333.108803" cy="332.715919" fill="#9554a0" r="4"/><circle cx="333.108803" cy="338.912153" fill="#b77b22" r="4"/><circle cx="333.108803" cy="349.427066" fill="#37834c" r="4"/><circle cx="395.783607" cy="251.640041" fill="#c6534a" r="4"/><circle cx="395.783607" cy="253.021352" fill="#168c91" r="4"/><circle cx="395.783607" cy="271.87327" fill="#3277ad" r="4"/><circle cx="395.783607" cy="332.605861" fill="#9554a0" r="4"/><circle cx="395.783607" cy="343.369024" fill="#37834c" r="4"/><circle cx="395.783607" cy="354.651471" fill="#b77b22" r="4"/><circle cx="456.737503" cy="236.511405" fill="#c6534a" r="4"/><circle cx="456.737503" cy="253.161857" fill="#168c91" r="4"/><circle cx="456.737503" cy="271.730978" fill="#3277ad" r="4"/><circle cx="456.737503" cy="332.410867" fill="#9554a0" r="4"/><circle cx="456.737503" cy="362.113357" fill="#37834c" r="4"/><circle cx="456.737503" cy="367.929156" fill="#b77b22" r="4"/><circle cx="516.078406" cy="222.002376" fill="#c6534a" r="4"/><circle cx="516.078406" cy="253.021352" fill="#168c91" r="4"/><circle cx="516.078406" cy="271.87327" fill="#3277ad" r="4"/><circle cx="516.078406" cy="333.195991" fill="#9554a0" r="4"/><circle cx="516.078406" cy="359.890641" fill="#37834c" r="4"/><circle cx="516.078406" cy="376.488591" fill="#b77b22" r="4"/><circle cx="575.609694" cy="207.105546" fill="#c6534a" r="4"/><circle cx="575.609694" cy="253.021352" fill="#168c91" r="4"/><circle cx="575.609694" cy="271.730978" fill="#3277ad" r="4"/><circle cx="575.609694" cy="332.998415" fill="#9554a0" r="4"/><circle cx="575.609694" cy="368.798133" fill="#37834c" r="4"/><circle cx="575.609694" cy="379.376749" fill="#b77b22" r="4"/><circle cx="634.586414" cy="192.408709" fill="#c6534a" r="4"/><circle cx="634.586414" cy="252.741658" fill="#168c91" r="4"/><circle cx="634.586414" cy="261.490106" fill="#3277ad" r="4"/><circle cx="634.586414" cy="332.618891" fill="#9554a0" r="4"/><circle cx="634.586414" cy="367.814557" fill="#37834c" r="4"/><circle cx="634.586414" cy="383.816338" fill="#b77b22" r="4"/><circle cx="695.585873" cy="177.10368" fill="#c6534a" r="4"/><circle cx="695.585873" cy="252.741658" fill="#168c91" r="4"/><circle cx="695.585873" cy="261.354703" fill="#3277ad" r="4"/><circle cx="695.585873" cy="333.556336" fill="#9554a0" r="4"/><circle cx="695.585873" cy="367.500914" fill="#37834c" r="4"/><circle cx="695.585873" cy="384.647649" fill="#b77b22" r="4"/><circle cx="754.717775" cy="162.489319" fill="#c6534a" r="4"/><circle cx="754.717775" cy="251.912913" fill="#168c91" r="4"/><circle cx="754.717775" cy="261.219707" fill="#3277ad" r="4"/><circle cx="754.717775" cy="332.998415" fill="#9554a0" r="4"/><circle cx="754.717775" cy="366.447903" fill="#37834c" r="4"/><circle cx="754.717775" cy="383.441214" fill="#b77b22" r="4"/><circle cx="814.856556" cy="147.442479" fill="#c6534a" r="4"/><circle cx="814.856556" cy="251.099238" fill="#168c91" r="4"/><circle cx="814.856556" cy="261.490106" fill="#3277ad" r="4"/><circle cx="814.856556" cy="332.801707" fill="#9554a0" r="4"/><circle cx="814.856556" cy="365.216149" fill="#37834c" r="4"/><circle cx="814.856556" cy="384.908588" fill="#b77b22" r="4"/><circle cx="875.229018" cy="132.407766" fill="#c6534a" r="4"/><circle cx="875.229018" cy="250.697882" fill="#168c91" r="4"/><circle cx="875.229018" cy="261.219707" fill="#3277ad" r="4"/><circle cx="875.229018" cy="332.715919" fill="#9554a0" r="4"/><circle cx="875.229018" cy="368.144824" fill="#37834c" r="4"/><circle cx="875.229018" cy="384.92822" fill="#b77b22" r="4"/><circle cx="935.305875" cy="117.307038" fill="#c6534a" r="4"/><circle cx="935.305875" cy="249.256292" fill="#168c91" r="4"/><circle cx="935.305875" cy="261.354703" fill="#3277ad" r="4"/><circle cx="935.305875" cy="332.801707" fill="#9554a0" r="4"/><circle cx="935.305875" cy="367.500914" fill="#37834c" r="4"/><circle cx="935.305875" cy="384.66066" fill="#b77b22" r="4"/><circle cx="995.226885" cy="102.230285" fill="#c6534a" r="4"/><circle cx="995.226885" cy="248.110403" fill="#168c91" r="4"/><circle cx="995.226885" cy="261.219707" fill="#3277ad" r="4"/><circle cx="995.226885" cy="332.605861" fill="#9554a0" r="4"/><circle cx="995.226885" cy="367.386315" fill="#37834c" r="4"/><circle cx="995.226885" cy="385.157898" fill="#b77b22" r="4"/><circle cx="1040" cy="91.033096" fill="#c6534a" r="4"/><circle cx="1040" cy="247.486251" fill="#168c91" r="4"/><circle cx="1040" cy="261.219707" fill="#3277ad" r="4"/><circle cx="1040" cy="332.801707" fill="#9554a0" r="4"/><circle cx="1040" cy="367.090807" fill="#37834c" r="4"/><circle cx="1040" cy="385.210561" fill="#b77b22" r="4"/><g font-size="11" stroke="#fff" stroke-width="3"><text fill="#168c91" font-weight="400" x="95" y="243.302805">7.93</text><text fill="#c6534a" font-weight="400" x="95" y="311.755513">1.72</text><text fill="#3277ad" font-weight="400" x="95" y="327.755513">1.70</text><text fill="#9554a0" font-weight="400" x="95" y="343.755513">1.51</text><text fill="#37834c" font-weight="700" x="95" y="359.755513">1.27</text><text fill="#b77b22" font-weight="400" x="95" y="375.755513">0.94</text><text fill="#168c91" font-weight="400" text-anchor="middle" x="155.012687" y="243.161858">7.95</text><text fill="#c6534a" font-weight="400" text-anchor="middle" x="155.012687" y="298.827199">2.29</text><text fill="#3277ad" font-weight="400" text-anchor="middle" x="155.012687" y="314.827199">2.28</text><text fill="#37834c" font-weight="700" text-anchor="middle" x="155.012687" y="330.827199">1.52</text><text fill="#9554a0" font-weight="400" text-anchor="middle" x="155.012687" y="346.827199">1.35</text><text fill="#b77b22" font-weight="400" text-anchor="middle" x="155.012687" y="362.827199">1.18</text><text fill="#168c91" font-weight="400" text-anchor="middle" x="218.6287" y="243.161857">7.95</text><text fill="#3277ad" font-weight="400" text-anchor="middle" x="218.6287" y="261.87327">5.23</text><text fill="#c6534a" font-weight="400" text-anchor="middle" x="218.6287" y="284.354743">3.17</text><text fill="#37834c" font-weight="700" text-anchor="middle" x="218.6287" y="303.632676">2.06</text><text fill="#b77b22" font-weight="400" text-anchor="middle" x="218.6287" y="319.632676">1.57</text><text fill="#9554a0" font-weight="400" text-anchor="middle" x="218.6287" y="335.632676">1.35</text><text fill="#168c91" font-weight="400" text-anchor="middle" x="278.641387" y="243.161858">7.95</text><text fill="#3277ad" font-weight="400" text-anchor="middle" x="278.641387" y="262.016017">5.22</text><text fill="#c6534a" font-weight="400" text-anchor="middle" x="278.641387" y="278.016017">4.37</text><text fill="#37834c" font-weight="700" text-anchor="middle" x="278.641387" y="294.016017">2.86</text><text fill="#b77b22" font-weight="400" text-anchor="middle" x="278.641387" y="310.016017">1.88</text><text fill="#9554a0" font-weight="400" text-anchor="middle" x="278.641387" y="326.016017">1.34</text><text fill="#168c91" font-weight="400" text-anchor="middle" x="333.108803" y="243.302805">7.93</text><text fill="#c6534a" font-weight="400" text-anchor="middle" x="333.108803" y="259.302805">5.88</text><text fill="#3277ad" font-weight="400" text-anchor="middle" x="333.108803" y="275.302805">5.25</text><text fill="#9554a0" font-weight="400" text-anchor="middle" x="333.108803" y="322.715919">1.34</text><text fill="#b77b22" font-weight="400" text-anchor="middle" x="333.108803" y="338.715919">1.17</text><text fill="#37834c" font-weight="700" text-anchor="middle" x="333.108803" y="354.715919">0.92</text><text fill="#c6534a" font-weight="400" text-anchor="middle" x="395.783607" y="241.640041">8.22</text><text fill="#168c91" font-weight="400" text-anchor="middle" x="395.783607" y="257.640041">7.97</text><text fill="#3277ad" font-weight="400" text-anchor="middle" x="395.783607" y="273.640041">5.23</text><text fill="#9554a0" font-weight="400" text-anchor="middle" x="395.783607" y="322.605861">1.35</text><text fill="#37834c" font-weight="700" text-anchor="middle" x="395.783607" y="338.605861">1.06</text><text fill="#b77b22" font-weight="400" text-anchor="middle" x="395.783607" y="354.605861">0.82</text><text fill="#c6534a" font-weight="400" text-anchor="middle" x="456.737503" y="226.511405">11.53</text><text fill="#168c91" font-weight="400" text-anchor="middle" x="456.737503" y="243.161857">7.95</text><text fill="#3277ad" font-weight="400" text-anchor="middle" x="456.737503" y="261.730978">5.25</text><text fill="#9554a0" font-weight="400" text-anchor="middle" x="456.737503" y="322.410867">1.35</text><text fill="#37834c" font-weight="700" text-anchor="middle" x="456.737503" y="352.113357">0.70</text><text fill="#b77b22" font-weight="400" text-anchor="middle" x="456.737503" y="368.113357">0.61</text><text fill="#c6534a" font-weight="400" text-anchor="middle" x="516.078406" y="212.002376">15.95</text><text fill="#168c91" font-weight="400" text-anchor="middle" x="516.078406" y="243.021352">7.97</text><text fill="#3277ad" font-weight="400" text-anchor="middle" x="516.078406" y="261.87327">5.23</text><text fill="#9554a0" font-weight="400" text-anchor="middle" x="516.078406" y="323.195991">1.33</text><text fill="#37834c" font-weight="700" text-anchor="middle" x="516.078406" y="349.890641">0.73</text><text fill="#b77b22" font-weight="400" text-anchor="middle" x="516.078406" y="366.488591">0.51</text><text fill="#c6534a" font-weight="400" text-anchor="middle" x="575.609694" y="197.105546">22.25</text><text fill="#168c91" font-weight="400" text-anchor="middle" x="575.609694" y="243.021352">7.97</text><text fill="#3277ad" font-weight="400" text-anchor="middle" x="575.609694" y="261.730978">5.25</text><text fill="#9554a0" font-weight="400" text-anchor="middle" x="575.609694" y="322.998415">1.34</text><text fill="#37834c" font-weight="700" text-anchor="middle" x="575.609694" y="358.798133">0.60</text><text fill="#b77b22" font-weight="400" text-anchor="middle" x="575.609694" y="374.798133">0.47</text><text fill="#c6534a" font-weight="400" text-anchor="middle" x="634.586414" y="182.408709">30.90</text><text fill="#168c91" font-weight="400" text-anchor="middle" x="634.586414" y="242.741658">8.02</text><text fill="#3277ad" font-weight="400" text-anchor="middle" x="634.586414" y="258.741658">6.60</text><text fill="#9554a0" font-weight="400" text-anchor="middle" x="634.586414" y="322.618891">1.35</text><text fill="#37834c" font-weight="700" text-anchor="middle" x="634.586414" y="357.814557">0.61</text><text fill="#b77b22" font-weight="400" text-anchor="middle" x="634.586414" y="373.816338">0.43</text><text fill="#c6534a" font-weight="400" text-anchor="middle" x="695.585873" y="167.10368">43.50</text><text fill="#168c91" font-weight="400" text-anchor="middle" x="695.585873" y="242.741658">8.03</text><text fill="#3277ad" font-weight="400" text-anchor="middle" x="695.585873" y="258.741658">6.62</text><text fill="#9554a0" font-weight="400" text-anchor="middle" x="695.585873" y="323.556336">1.32</text><text fill="#37834c" font-weight="700" text-anchor="middle" x="695.585873" y="357.500914">0.62</text><text fill="#b77b22" font-weight="400" text-anchor="middle" x="695.585873" y="374.647649">0.42</text><text fill="#c6534a" font-weight="400" text-anchor="middle" x="754.717775" y="152.489319">60.30</text><text fill="#168c91" font-weight="400" text-anchor="middle" x="754.717775" y="241.912913">8.18</text><text fill="#3277ad" font-weight="400" text-anchor="middle" x="754.717775" y="257.912913">6.64</text><text fill="#9554a0" font-weight="400" text-anchor="middle" x="754.717775" y="322.998415">1.34</text><text fill="#37834c" font-weight="700" text-anchor="middle" x="754.717775" y="356.447903">0.63</text><text fill="#b77b22" font-weight="400" text-anchor="middle" x="754.717775" y="373.441214">0.43</text><text fill="#c6534a" font-weight="400" text-anchor="middle" x="814.856556" y="137.442479">84.40</text><text fill="#168c91" font-weight="400" text-anchor="middle" x="814.856556" y="241.099238">8.33</text><text fill="#3277ad" font-weight="400" text-anchor="middle" x="814.856556" y="257.099238">6.60</text><text fill="#9554a0" font-weight="400" text-anchor="middle" x="814.856556" y="322.801707">1.34</text><text fill="#37834c" font-weight="700" text-anchor="middle" x="814.856556" y="355.216149">0.65</text><text fill="#b77b22" font-weight="400" text-anchor="middle" x="814.856556" y="374.908588">0.42</text><text fill="#c6534a" font-weight="400" text-anchor="middle" x="875.229018" y="122.407766">118.10</text><text fill="#168c91" font-weight="400" text-anchor="middle" x="875.229018" y="240.697882">8.40</text><text fill="#3277ad" font-weight="400" text-anchor="middle" x="875.229018" y="256.697882">6.64</text><text fill="#9554a0" font-weight="400" text-anchor="middle" x="875.229018" y="322.715919">1.34</text><text fill="#37834c" font-weight="700" text-anchor="middle" x="875.229018" y="358.144824">0.61</text><text fill="#b77b22" font-weight="400" text-anchor="middle" x="875.229018" y="374.92822">0.42</text><text fill="#c6534a" font-weight="400" text-anchor="middle" x="935.305875" y="107.307038">165.50</text><text fill="#168c91" font-weight="400" text-anchor="middle" x="935.305875" y="239.256292">8.68</text><text fill="#3277ad" font-weight="400" text-anchor="middle" x="935.305875" y="255.256292">6.62</text><text fill="#9554a0" font-weight="400" text-anchor="middle" x="935.305875" y="322.801707">1.34</text><text fill="#37834c" font-weight="700" text-anchor="middle" x="935.305875" y="357.500914">0.62</text><text fill="#b77b22" font-weight="400" text-anchor="middle" x="935.305875" y="374.66066">0.42</text><text fill="#c6534a" font-weight="400" text-anchor="middle" x="995.226885" y="92.230285">231.80</text><text fill="#168c91" font-weight="400" text-anchor="middle" x="995.226885" y="238.110403">8.90</text><text fill="#3277ad" font-weight="400" text-anchor="middle" x="995.226885" y="254.110403">6.64</text><text fill="#9554a0" font-weight="400" text-anchor="middle" x="995.226885" y="322.605861">1.35</text><text fill="#37834c" font-weight="700" text-anchor="middle" x="995.226885" y="357.386315">0.62</text><text fill="#b77b22" font-weight="400" text-anchor="middle" x="995.226885" y="375.157898">0.42</text><text fill="#c6534a" font-weight="400" text-anchor="middle" x="1040" y="81.033096">297.70</text><text fill="#168c91" font-weight="400" text-anchor="middle" x="1040" y="237.486251">9.03</text><text fill="#3277ad" font-weight="400" text-anchor="middle" x="1040" y="253.486251">6.64</text><text fill="#9554a0" font-weight="400" text-anchor="middle" x="1040" y="322.801707">1.34</text><text fill="#37834c" font-weight="700" text-anchor="middle" x="1040" y="357.090807">0.62</text><text fill="#b77b22" font-weight="400" text-anchor="middle" x="1040" y="375.210561">0.42</text></g><path d="m95 557h28" stroke="#c6534a" stroke-width="2.5"/><text font-size="15" font-weight="400" x="133" y="562">Gaussian</text><path d="m428.33333333 557h28" stroke="#3277ad" stroke-width="2.5"/><text font-size="15" font-weight="400" x="466.333333" y="562">Fast Gaussian</text><path d="m761.66666667 557h28" stroke="#9554a0" stroke-dasharray="7 4" stroke-linecap="round" stroke-width="2"/><text font-size="15" font-weight="400" x="799.666667" y="562">Dual Kawase</text><path d="m95 585h28" stroke="#b77b22" stroke-width="2.5"/><text font-size="15" font-weight="400" x="133" y="590">Skia Gaussian</text><path d="m428.33333333 585h28" stroke="#168c91" stroke-dasharray="1 5" stroke-linecap="round" stroke-width="2"/><text font-size="15" font-weight="400" x="466.333333" y="590">Ryg Blur</text><path d="m761.66666667 585h28" stroke="#37834c" stroke-width="4"/><text font-size="15" font-weight="700" x="799.666667" y="590">Smol Gaussian</text></g></svg>