<svg viewBox="0 0 1100 610" xmlns="http://www.w3.org/2000/svg"><rect fill="#fff" height="100%" width="100%"/><g fill="#333" font-family="sans-serif"><text font-size="20" x="95" y="30">Blur timings (3840x2160)</text><path d="m95 480h945" stroke="#e5e5e5"/><text font-size="12" text-anchor="end" x="85" y="484">0.2</text><path d="m95 429.95928398h945" stroke="#e5e5e5"/><text font-size="12" text-anchor="end" x="85" y="433.95928398">0.5</text><path d="m95 392.10494363h945" stroke="#e5e5e5"/><text font-size="12" text-anchor="end" x="85" y="396.10494363">1</text><path d="m95 354.25060329h945" stroke="#e5e5e5"/><text font-size="12" text-anchor="end" x="85" y="358.25060329">2</text><path d="m95 304.20988727h945" stroke="#e5e5e5"/><text font-size="12" text-anchor="end" x="85" y="308.20988727">5</text><path d="m95 266.35554691h945" stroke="#e5e5e5"/><text font-size="12" text-anchor="end" x="85" y="270.35554691">10</text><path d="m95 228.50120656h945" stroke="#e5e5e5"/><text font-size="12" text-anchor="end" x="85" y="232.50120656">20</text><path d="m95 178.46049054h945" stroke="#e5e5e5"/><text font-size="12" text-anchor="end" x="85" y="182.46049054">50</text><path d="m95 140.6061502h945" stroke="#e5e5e5"/><text font-size="12" text-anchor="end" x="85" y="144.6061502">100</text><path d="m95 102.75180985h945" stroke="#e5e5e5"/><text font-size="12" text-anchor="end" x="85" y="106.75180985">200</text><path d="m95 70v410" stroke="#eee"/><text font-size="12" text-anchor="middle" x="95" y="501">5</text><path d="m155.01268735 70v410" stroke="#eee"/><text font-size="12" text-anchor="middle" x="155.012687" y="501">7</text><path d="m218.62869951 70v410" stroke="#eee"/><text font-size="12" text-anchor="middle" x="218.6287" y="501">10</text><path d="m278.64138686 70v410" stroke="#eee"/><text font-size="12" text-anchor="middle" x="278.641387" y="501">14</text><path d="m333.10880338 70v410" stroke="#eee"/><text font-size="12" text-anchor="middle" x="333.108803" y="501">19</text><path d="m395.78360749 70v410" stroke="#eee"/><text font-size="12" text-anchor="middle" x="395.783607" y="501">27</text><path d="m456.73750289 70v410" stroke="#eee"/><text font-size="12" text-anchor="middle" x="456.737503" y="501">38</text><path d="m516.07840598 70v410" stroke="#eee"/><text font-size="12" text-anchor="middle" x="516.078406" y="501">53</text><path d="m575.60969354 70v410" stroke="#eee"/><text font-size="12" text-anchor="middle" x="575.609694" y="501">74</text><path d="m634.58641373 70v410" stroke="#eee"/><text font-size="12" text-anchor="middle" x="634.586414" y="501">103</text><path d="m695.58587268 70v410" stroke="#eee"/><text font-size="12" text-anchor="middle" x="695.585873" y="501">145</text><path d="m754.71777547 70v410" stroke="#eee"/><text font-size="12" text-anchor="middle" x="754.717775" y="501">202</text><path d="m814.8565558 70v410" stroke="#eee"/><text font-size="12" text-anchor="middle" x="814.856556" y="501">283</text><path d="m875.22901839 70v410" stroke="#eee"/><text font-size="12" text-anchor="middle" x="875.229018" y="501">397</text><path d="m935.30587502 70v410" stroke="#eee"/><text font-size="12" text-anchor="middle" x="935.305875" y="501">556</text><path d="m995.2268849 70v410" stroke="#eee"/><text font-size="12" text-anchor="middle" x="995.226885" y="501">778</text><path d="m1040 70v410" stroke="#eee"/><text font-size="12" text-anchor="middle" x="1040" y="501">1000</text><text font-size="15" text-anchor="middle" x="567.5" y="528">Blur radius (pixels)</text><text font-size="15" text-anchor="middle" transform="matrix(0 -1 1 0 25 275)">Time, ms</text><path d="m 95 344.29361261 60.01268735 11.90267181 63.61601216 -16.063537 60.01268735 -17.3284609 54.46741652 -13.6435587 62.67480411 -18.43242957 60.9538954 -18.6187745 59.34090309 -17.35469239 59.53128756 -18.17537085 58.97672019 -17.34829214 60.99945895 -19.22476326 59.13190279 -17.58266436 60.13878033 -18.29155803 60.37246259 -18.37551232 60.07685663 -18.24676032 59.92100988 -18.17873334 44.7731151 -13.66321207" fill="none" stroke="#c6534a" stroke-width="2.5"/><path d="m 95 363.12613309 60.01268735 -7.3370543 63.61601216 -45.33760179 60.01268735 0.94693828 h 54.46741652 l 62.67480411 1.04825232 60.9538954 -1.8726043 59.34090309 0.82435199 59.53128756 0.83698572 58.97672019 -5.03231177 60.99945895 -0.76382059 59.13190279 0.95645694 60.13878033 -0.19263589 60.37246259 -1.14176177 60.07685663 -0.37534363 h 59.92100988 l 44.7731151 0.75328472" fill="none" stroke="#3277ad" stroke-width="2.5"/><path d="m 95 349.04549691 60.01268735 17.3914824 63.61601216 0.26319169 60.01268735 1.76508289 54.46741652 -1.76508226 62.67480411 1.60635878 60.9538954 0.62459326 59.34090309 -2.91914445 59.53128756 2.86812858 58.97672019 -2.06255472 60.99945895 1.35329392 59.13190279 -0.15991819 60.13878033 0.15991888 60.37246259 -0.9700485 60.07685663 -0.76382024 59.92100988 -0.2837006 44.7731151 1.31740201" fill="none" stroke="#9554a0" stroke-dasharray="7 4" stroke-linecap="round" stroke-width="2"/><path d="m 95 390.49067062 60.01268735 -8.0166767 63.61601216 -12.05541121 60.01268735 -14.0806326 54.46741652 21.96634485 62.67480411 11.42582887 60.9538954 18.08579056 59.34090309 7.81506092 59.53128756 1.15790154 58.97672019 5.53769146 60.99945895 -0.00000188 59.13190279 1.97812486 h 60.13878033 l 60.37246259 -1.97812297 60.07685663 -5.27701234 59.92100988 5.01381854 44.7731151 -2.06108391" fill="none" stroke="#b77b22" stroke-width="2.5"/><path d="m 95 283.35590609 60.01268735 0.18670862 63.61601216 -0.37278109 60.01268735 0.37278153 54.46741652 -0.00000044 h 62.67480411 60.9538954 l 59.34090309 -0.18670862 59.53128756 -2.19209111 58.97672019 -0.88802394 60.99945895 -1.39147058 59.13190279 0.17200753 60.13878033 -0.17200753 60.37246259 -0.68266241 60.07685663 -0.16934034 59.92100988 -0.83891465 44.7731151 -0.66197477" fill="none" stroke="#168c91" stroke-dasharray="1 5" stroke-linecap="round" stroke-width="2"/><path d="m 95 380.65162885 60.01268735 -7.24630645 63.61601216 -13.16685629 60.01268735 -17.29337666 54.46741652 46.20712055 62.67480411 -0.57186125 60.9538954 27.05062742 59.34090309 -4.69351111 59.53128756 14.9746144 58.97672019 -3.9236692 60.99945895 -1.98612118 59.13190279 0.00000242 60.13878033 2.32427679 60.37246259 4.10811978 60.07685663 -1.68050929 59.92100988 -4.75188728 44.7731151 6.43239793" fill="none" stroke="#37834c" stroke-width="4"/><circle cx="95" cy="283.3559064" fill="#168c91" r="4"/><circle cx="95" cy="344.29361287" fill="#c6534a" r="4"/><circle cx="95" cy="349.04549636" fill="#9554a0" r="4"/><circle cx="95" cy="363.12613297" fill="#3277ad" r="4"/><circle cx="95" cy="380.65162878" fill="#37834c" r="4"/><circle cx="95" cy="390.49067098" fill="#b77b22" r="4"/><circle cx="155.012687" cy="283.54261519" fill="#168c91" r="4"/><circle cx="155.012687" cy="355.78907924" fill="#3277ad" r="4"/><circle cx="155.012687" cy="356.19628437" fill="#c6534a" r="4"/><circle cx="155.012687" cy="366.43697922" fill="#9554a0" r="4"/><circle cx="155.012687" cy="373.40532201" fill="#37834c" r="4"/><circle cx="155.012687" cy="382.47399353" fill="#b77b22" r="4"/><circle cx="218.6287" cy="283.16983377" fill="#168c91" r="4"/><circle cx="218.6287" cy="310.45147672" fill="#3277ad" r="4"/><circle cx="218.6287" cy="340.132748" fill="#c6534a" r="4"/><circle cx="218.6287" cy="360.23846574" fill="#37834c" r="4"/><circle cx="218.6287" cy="366.70017054" fill="#9554a0" r="4"/><circle cx="218.6287" cy="370.41858324" fill="#b77b22" r="4"/><circle cx="278.641387" cy="283.54261519" fill="#168c91" r="4"/><circle cx="278.641387" cy="311.39841555" fill="#3277ad" r="4"/><circle cx="278.641387" cy="322.80428643" fill="#c6534a" r="4"/><circle cx="278.641387" cy="342.94508892" fill="#37834c" r="4"/><circle cx="278.641387" cy="356.33795019" fill="#b77b22" r="4"/><circle cx="278.641387" cy="368.46525366" fill="#9554a0" r="4"/><circle cx="333.108803" cy="283.54261519" fill="#168c91" r="4"/><circle cx="333.108803" cy="309.16072841" fill="#c6534a" r="4"/><circle cx="333.108803" cy="311.39841555" fill="#3277ad" r="4"/><circle cx="333.108803" cy="366.70017173" fill="#9554a0" r="4"/><circle cx="333.108803" cy="378.30429468" fill="#b77b22" r="4"/><circle cx="333.108803" cy="389.1522095" fill="#37834c" r="4"/><circle cx="395.783607" cy="283.54261519" fill="#168c91" r="4"/><circle cx="395.783607" cy="290.7282984" fill="#c6534a" r="4"/><circle cx="395.783607" cy="312.44666728" fill="#3277ad" r="4"/><circle cx="395.783607" cy="368.30652998" fill="#9554a0" r="4"/><circle cx="395.783607" cy="388.58034913" fill="#37834c" r="4"/><circle cx="395.783607" cy="389.73012345" fill="#b77b22" r="4"/><circle cx="456.737503" cy="272.10952329" fill="#c6534a" r="4"/><circle cx="456.737503" cy="283.54261519" fill="#168c91" r="4"/><circle cx="456.737503" cy="310.57406367" fill="#3277ad" r="4"/><circle cx="456.737503" cy="368.9311241" fill="#9554a0" r="4"/><circle cx="456.737503" cy="407.81591384" fill="#b77b22" r="4"/><circle cx="456.737503" cy="415.63097599" fill="#37834c" r="4"/><circle cx="516.078406" cy="254.75483109" fill="#c6534a" r="4"/><circle cx="516.078406" cy="283.3559064" fill="#168c91" r="4"/><circle cx="516.078406" cy="311.39841555" fill="#3277ad" r="4"/><circle cx="516.078406" cy="366.01197939" fill="#9554a0" r="4"/><circle cx="516.078406" cy="410.93746521" fill="#37834c" r="4"/><circle cx="516.078406" cy="415.63097481" fill="#b77b22" r="4"/><circle cx="575.609694" cy="236.57946062" fill="#c6534a" r="4"/><circle cx="575.609694" cy="281.16381546" fill="#168c91" r="4"/><circle cx="575.609694" cy="312.23540059" fill="#3277ad" r="4"/><circle cx="575.609694" cy="368.8801081" fill="#9554a0" r="4"/><circle cx="575.609694" cy="416.78887705" fill="#b77b22" r="4"/><circle cx="575.609694" cy="425.91207944" fill="#37834c" r="4"/><circle cx="634.586414" cy="219.23116793" fill="#c6534a" r="4"/><circle cx="634.586414" cy="280.27579073" fill="#168c91" r="4"/><circle cx="634.586414" cy="307.20308905" fill="#3277ad" r="4"/><circle cx="634.586414" cy="366.8175533" fill="#9554a0" r="4"/><circle cx="634.586414" cy="421.9884098" fill="#37834c" r="4"/><circle cx="634.586414" cy="422.32656848" fill="#b77b22" r="4"/><circle cx="695.585873" cy="200.0064049" fill="#c6534a" r="4"/><circle cx="695.585873" cy="278.88432065" fill="#168c91" r="4"/><circle cx="695.585873" cy="306.43926831" fill="#3277ad" r="4"/><circle cx="695.585873" cy="368.17084667" fill="#9554a0" r="4"/><circle cx="695.585873" cy="420.00228896" fill="#37834c" r="4"/><circle cx="695.585873" cy="422.32656611" fill="#b77b22" r="4"/><circle cx="754.717775" cy="182.42374118" fill="#c6534a" r="4"/><circle cx="754.717775" cy="279.05632786" fill="#168c91" r="4"/><circle cx="754.717775" cy="307.39572585" fill="#3277ad" r="4"/><circle cx="754.717775" cy="368.01092886" fill="#9554a0" r="4"/><circle cx="754.717775" cy="420.00229133" fill="#37834c" r="4"/><circle cx="754.717775" cy="424.30469172" fill="#b77b22" r="4"/><circle cx="814.856556" cy="164.13218327" fill="#c6534a" r="4"/><circle cx="814.856556" cy="278.88432065" fill="#168c91" r="4"/><circle cx="814.856556" cy="307.20309023" fill="#3277ad" r="4"/><circle cx="814.856556" cy="368.17084786" fill="#9554a0" r="4"/><circle cx="814.856556" cy="422.32656848" fill="#37834c" r="4"/><circle cx="814.856556" cy="424.30469172" fill="#b77b22" r="4"/><circle cx="875.229018" cy="145.75667003" fill="#c6534a" r="4"/><circle cx="875.229018" cy="278.20165828" fill="#168c91" r="4"/><circle cx="875.229018" cy="306.06132773" fill="#3277ad" r="4"/><circle cx="875.229018" cy="367.20079877" fill="#9554a0" r="4"/><circle cx="875.229018" cy="422.32656848" fill="#b77b22" r="4"/><circle cx="875.229018" cy="426.43468776" fill="#37834c" r="4"/><circle cx="935.305875" cy="127.50990986" fill="#c6534a" r="4"/><circle cx="935.305875" cy="278.03231773" fill="#168c91" r="4"/><circle cx="935.305875" cy="305.68598391" fill="#3277ad" r="4"/><circle cx="935.305875" cy="366.43697922" fill="#9554a0" r="4"/><circle cx="935.305875" cy="417.04955572" fill="#b77b22" r="4"/><circle cx="935.305875" cy="424.75417838" fill="#37834c" r="4"/><circle cx="995.226885" cy="109.33117734" fill="#c6534a" r="4"/><circle cx="995.226885" cy="277.19340288" fill="#168c91" r="4"/><circle cx="995.226885" cy="305.68598391" fill="#3277ad" r="4"/><circle cx="995.226885" cy="366.15327797" fill="#9554a0" r="4"/><circle cx="995.226885" cy="420.00229133" fill="#37834c" r="4"/><circle cx="995.226885" cy="422.06337479" fill="#b77b22" r="4"/><circle cx="1040" cy="95.6679647" fill="#c6534a" r="4"/><circle cx="1040" cy="276.53142815" fill="#168c91" r="4"/><circle cx="1040" cy="306.4392695" fill="#3277ad" r="4"/><circle cx="1040" cy="367.47067984" fill="#9554a0" r="4"/><circle cx="1040" cy="420.00229015" fill="#b77b22" r="4"/><circle cx="1040" cy="426.43468895" fill="#37834c" r="4"/><g fill="#000" font-size="11" paint-order="stroke fill" stroke="#fff" stroke-width="3"><text font-weight="400" x="95" y="271.50935321">7.32</text><text font-weight="400" x="95" y="332.44705969">2.40</text><text font-weight="400" x="95" y="351.40154479">2.20</text><text font-weight="400" x="95" y="370.35602989">1.70</text><text font-weight="700" x="95" y="389.31051499">1.23</text><text font-weight="400" x="95" y="408.26500009">1.03</text><text font-weight="400" text-anchor="middle" x="155.012687" y="271.696062">7.30</text><text font-weight="400" text-anchor="middle" x="155.012687" y="343.94252605">1.94</text><text font-weight="400" text-anchor="middle" x="155.012687" y="362.89701115">1.93</text><text font-weight="400" text-anchor="middle" x="155.012687" y="381.85149625">1.60</text><text font-weight="700" text-anchor="middle" x="155.012687" y="400.80598135">1.41</text><text font-weight="400" text-anchor="middle" x="155.012687" y="419.76046646">1.19</text><text font-weight="400" text-anchor="middle" x="218.6287" y="271.32328059">7.35</text><text font-weight="400" text-anchor="middle" x="218.6287" y="298.60492353">4.46</text><text font-weight="400" text-anchor="middle" x="218.6287" y="328.28619481">2.59</text><text font-weight="700" text-anchor="middle" x="218.6287" y="348.39191255">1.79</text><text font-weight="400" text-anchor="middle" x="218.6287" y="367.34639765">1.59</text><text font-weight="400" text-anchor="middle" x="218.6287" y="386.30088275">1.49</text><text font-weight="400" text-anchor="middle" x="278.641387" y="271.696062">7.30</text><text font-weight="400" text-anchor="middle" x="278.641387" y="299.55186236">4.38</text><text font-weight="400" text-anchor="middle" x="278.641387" y="318.50634746">3.56</text><text font-weight="700" text-anchor="middle" x="278.641387" y="337.46083256">2.46</text><text font-weight="400" text-anchor="middle" x="278.641387" y="356.41531766">1.93</text><text font-weight="400" text-anchor="middle" x="278.641387" y="375.36980276">1.54</text><text font-weight="400" text-anchor="middle" x="333.108803" y="271.696062">7.30</text><text font-weight="400" text-anchor="middle" x="333.108803" y="297.31417522">4.57</text><text font-weight="400" text-anchor="middle" x="333.108803" y="316.26866032">4.38</text><text font-weight="400" text-anchor="middle" x="333.108803" y="354.85361854">1.59</text><text font-weight="400" text-anchor="middle" x="333.108803" y="373.80810364">1.29</text><text font-weight="700" text-anchor="middle" x="333.108803" y="392.76258874">1.06</text><text font-weight="400" text-anchor="middle" x="395.783607" y="271.696062">7.30</text><text font-weight="400" text-anchor="middle" x="395.783607" y="290.6505471">6.40</text><text font-weight="400" text-anchor="middle" x="395.783607" y="309.6050322">4.30</text><text font-weight="400" text-anchor="middle" x="395.783607" y="356.4599768">1.55</text><text font-weight="700" text-anchor="middle" x="395.783607" y="376.73379594">1.07</text><text font-weight="400" text-anchor="middle" x="395.783607" y="395.68828104">1.04</text><text font-weight="400" text-anchor="middle" x="456.737503" y="260.2629701">9.00</text><text font-weight="400" text-anchor="middle" x="456.737503" y="279.2174552">7.30</text><text font-weight="400" text-anchor="middle" x="456.737503" y="298.72751048">4.45</text><text font-weight="400" text-anchor="middle" x="456.737503" y="357.08457091">1.53</text><text font-weight="400" text-anchor="middle" x="456.737503" y="395.96936065">0.75</text><text font-weight="700" text-anchor="middle" x="456.737503" y="414.92384575">0.65</text><text font-weight="400" text-anchor="middle" x="516.078406" y="242.9082779">12.37</text><text font-weight="400" text-anchor="middle" x="516.078406" y="271.50935321">7.32</text><text font-weight="400" text-anchor="middle" x="516.078406" y="299.55186236">4.38</text><text font-weight="400" text-anchor="middle" x="516.078406" y="354.1654262">1.61</text><text font-weight="700" text-anchor="middle" x="516.078406" y="399.09091202">0.71</text><text font-weight="400" text-anchor="middle" x="516.078406" y="418.04539712">0.65</text><text font-weight="400" text-anchor="middle" x="575.609694" y="224.73290743">17.25</text><text font-weight="400" text-anchor="middle" x="575.609694" y="269.31726227">7.63</text><text font-weight="400" text-anchor="middle" x="575.609694" y="300.3888474">4.32</text><text font-weight="400" text-anchor="middle" x="575.609694" y="357.03355492">1.53</text><text font-weight="400" text-anchor="middle" x="575.609694" y="404.94232387">0.64</text><text font-weight="700" text-anchor="middle" x="575.609694" y="423.89680897">0.54</text><text font-weight="400" text-anchor="middle" x="634.586414" y="207.38461474">23.70</text><text font-weight="400" text-anchor="middle" x="634.586414" y="268.42923754">7.75</text><text font-weight="400" text-anchor="middle" x="634.586414" y="295.35653586">4.73</text><text font-weight="400" text-anchor="middle" x="634.586414" y="354.97100011">1.59</text><text font-weight="700" text-anchor="middle" x="634.586414" y="410.14185662">0.58</text><text font-weight="400" text-anchor="middle" x="634.586414" y="429.09634172">0.57</text><text font-weight="400" text-anchor="middle" x="695.585873" y="188.15985171">33.70</text><text font-weight="400" text-anchor="middle" x="695.585873" y="267.03776746">7.95</text><text font-weight="400" text-anchor="middle" x="695.585873" y="294.59271513">4.80</text><text font-weight="400" text-anchor="middle" x="695.585873" y="356.32429348">1.55</text><text font-weight="700" text-anchor="middle" x="695.585873" y="408.15573577">0.60</text><text font-weight="400" text-anchor="middle" x="695.585873" y="427.11022087">0.58</text><text font-weight="400" text-anchor="middle" x="754.717775" y="170.57718799">46.50</text><text font-weight="400" text-anchor="middle" x="754.717775" y="267.20977468">7.92</text><text font-weight="400" text-anchor="middle" x="754.717775" y="295.54917266">4.72</text><text font-weight="400" text-anchor="middle" x="754.717775" y="356.16437568">1.55</text><text font-weight="700" text-anchor="middle" x="754.717775" y="408.15573814">0.60</text><text font-weight="400" text-anchor="middle" x="754.717775" y="427.11022324">0.55</text><text font-weight="400" text-anchor="middle" x="814.856556" y="152.28563009">65.00</text><text font-weight="400" text-anchor="middle" x="814.856556" y="267.03776746">7.95</text><text font-weight="400" text-anchor="middle" x="814.856556" y="295.35653704">4.73</text><text font-weight="400" text-anchor="middle" x="814.856556" y="356.32429467">1.55</text><text font-weight="700" text-anchor="middle" x="814.856556" y="410.48001529">0.57</text><text font-weight="400" text-anchor="middle" x="814.856556" y="429.43450039">0.55</text><text font-weight="400" text-anchor="middle" x="875.229018" y="133.91011684">91.00</text><text font-weight="400" text-anchor="middle" x="875.229018" y="266.3551051">8.05</text><text font-weight="400" text-anchor="middle" x="875.229018" y="294.21477454">4.83</text><text font-weight="400" text-anchor="middle" x="875.229018" y="355.35424558">1.58</text><text font-weight="400" text-anchor="middle" x="875.229018" y="410.48001529">0.57</text><text font-weight="700" text-anchor="middle" x="875.229018" y="429.43450039">0.53</text><text font-weight="400" text-anchor="middle" x="935.305875" y="115.66335667">127.10</text><text font-weight="400" text-anchor="middle" x="935.305875" y="266.18576454">8.07</text><text font-weight="400" text-anchor="middle" x="935.305875" y="293.83943072">4.87</text><text font-weight="400" text-anchor="middle" x="935.305875" y="354.59042604">1.60</text><text font-weight="400" text-anchor="middle" x="935.305875" y="405.20300253">0.63</text><text font-weight="700" text-anchor="middle" x="935.305875" y="424.15748763">0.55</text><text font-weight="400" text-anchor="middle" x="995.226885" y="97.48462415">177.30</text><text font-weight="400" text-anchor="middle" x="995.226885" y="265.34684969">8.20</text><text font-weight="400" text-anchor="middle" x="995.226885" y="293.83943072">4.87</text><text font-weight="400" text-anchor="middle" x="995.226885" y="354.30672478">1.61</text><text font-weight="700" text-anchor="middle" x="995.226885" y="408.15573814">0.60</text><text font-weight="400" text-anchor="middle" x="995.226885" y="427.11022324">0.58</text><text font-weight="400" text-anchor="middle" x="1040" y="83.82141151">227.70</text><text font-weight="400" text-anchor="middle" x="1040" y="264.68487496">8.30</text><text font-weight="400" text-anchor="middle" x="1040" y="294.59271631">4.80</text><text font-weight="400" text-anchor="middle" x="1040" y="355.62412665">1.57</text><text font-weight="400" text-anchor="middle" x="1040" y="408.15573696">0.60</text><text font-weight="700" text-anchor="middle" x="1040" y="427.11022206">0.53</text></g><path d="m95 557h28" stroke="#c6534a" stroke-width="2.5"/><text font-size="15" font-weight="400" x="133" y="562">Gaussian</text><path d="m428.33333333 557h28" stroke="#3277ad" stroke-width="2.5"/><text font-size="15" font-weight="400" x="466.333333" y="562">Fast Gaussian</text><path d="m761.66666667 557h28" stroke="#9554a0" stroke-dasharray="7 4" stroke-linecap="round" stroke-width="2"/><text font-size="15" font-weight="400" x="799.666667" y="562">Dual Kawase</text><path d="m95 585h28" stroke="#b77b22" stroke-width="2.5"/><text font-size="15" font-weight="400" x="133" y="590">Skia Gaussian</text><path d="m428.33333333 585h28" stroke="#168c91" stroke-dasharray="1 5" stroke-linecap="round" stroke-width="2"/><text font-size="15" font-weight="400" x="466.333333" y="590">Ryg Blur</text><path d="m761.66666667 585h28" stroke="#37834c" stroke-width="4"/><text font-size="15" font-weight="700" x="799.666667" y="590">Smol Gaussian</text></g></svg>